<svg width="188" height="79" viewBox="0 0 188 79" fill="none" xmlns="http://www.w3.org/2000/svg">
<g filter="url(#filter0_d_16_90)">
<path d="M22.4854 16.9585C12.7812 16.9585 4.88403 25.2617 4.88403 35.4648C4.88403 45.6679 12.7812 53.9712 22.4854 53.9712C32.1896 53.9712 40.0868 45.6679 40.0868 35.4648C40.0868 25.2617 32.1896 16.9585 22.4854 16.9585ZM32.0558 43.9088C31.5203 44.4013 30.8511 44.8939 30.1818 45.3161C29.5126 45.8087 28.7095 46.1605 27.9064 46.5827C27.1033 46.9345 26.1663 47.216 25.2294 47.4271C24.2924 47.6382 23.2885 47.7789 22.2177 47.7789C20.6784 47.7789 19.273 47.5678 18.1353 47.216C16.9975 46.8642 16.0606 46.3716 15.3244 45.6679C14.5882 45.0346 14.0528 44.2606 13.7182 43.3458C13.3836 42.4311 13.1828 41.5163 13.1828 40.4608C13.1828 38.9832 13.5174 37.7869 14.1197 36.8018C14.7221 35.8167 15.5921 34.9723 16.596 34.2686C16.0606 33.7057 15.659 33.002 15.3244 32.1576C14.9898 31.3836 14.789 30.5392 14.789 29.5541C14.789 28.5689 14.9898 27.5838 15.3244 26.7394C15.659 25.895 16.1944 25.121 16.7968 24.4877C17.466 23.8544 18.2022 23.3619 19.0722 23.01C19.9422 22.6582 20.8792 22.5174 21.8831 22.5174C23.0208 22.5174 24.0247 22.7285 24.8947 23.0804C25.8317 23.4322 26.5679 23.9247 27.2371 24.558C27.9064 25.1913 28.3749 25.9654 28.7095 26.8098C29.0441 27.6542 29.2449 28.6393 29.2449 29.6948C29.2449 30.891 28.9103 31.9465 28.3079 32.8613C27.7056 33.7761 26.9694 34.5501 26.0994 35.2537L29.178 37.998C29.4457 37.7166 29.7134 37.4351 29.9811 37.0833C30.2488 36.8018 30.5834 36.3796 30.985 35.8166L35.5359 39.8979C35.0674 40.6016 34.532 41.3052 33.9297 41.9385C33.3273 42.7125 32.725 43.3458 32.0558 43.9088ZM30.3157 40.6016C29.9142 41.0238 29.4457 41.3756 29.0441 41.7274C28.241 42.2904 27.2371 42.8533 26.0994 43.3458C24.9617 43.8384 23.6231 44.0495 22.0839 44.0495C21.5485 44.0495 21.0131 43.9791 20.4107 43.8384C19.8753 43.6977 19.3399 43.4866 18.8714 43.2051C18.403 42.9236 18.0014 42.5015 17.7337 42.0089C17.3991 41.5163 17.2652 40.883 17.2652 40.1794C17.2652 39.1239 17.5329 38.3498 18.1353 37.7165C18.6707 37.0832 19.4738 36.5203 20.5446 35.9574L21.5485 35.3945L26.9025 40.0386L27.5718 39.5461L22.3516 34.9723C23.6231 34.2686 24.627 33.4946 25.3632 32.6502C26.0994 31.8058 26.5009 30.8206 26.5009 29.6244C26.5009 28.9911 26.3671 28.4282 26.1663 27.9357C25.8986 27.4431 25.6309 26.9505 25.1624 26.5987C24.7609 26.2469 24.2924 25.9654 23.6901 25.7543C23.1547 25.5432 22.5523 25.4728 21.8831 25.4728C21.3477 25.4728 20.8123 25.5432 20.2769 25.7543C19.7415 25.9654 19.273 26.2469 18.8714 26.5987C18.4699 26.9505 18.1353 27.4431 17.8676 27.9357C17.5999 28.4282 17.5329 29.0615 17.5329 29.6948C17.5329 30.6096 17.7337 31.3836 18.2022 32.0169C18.6707 32.7206 19.273 33.3538 20.0761 34.0575L20.9461 34.8315L20.143 35.2537C19.6746 35.5352 19.1391 35.8167 18.7376 36.0981C18.2691 36.45 17.9345 36.8018 17.5999 37.1536C17.2652 37.5758 16.9975 37.998 16.8637 38.4906C16.6629 38.9832 16.596 39.5461 16.596 40.109C16.596 40.883 16.7298 41.5867 17.0645 42.22C17.3991 42.8533 17.8006 43.2755 18.336 43.6977C18.8714 44.0495 19.4738 44.4013 20.143 44.5421C20.8123 44.7532 21.5485 44.8236 22.2847 44.8236C23.8239 44.8236 25.2294 44.5421 26.5009 44.0495C27.7056 43.5569 28.7764 42.9236 29.6465 42.2903C30.6503 41.5163 31.5204 40.6719 32.3235 39.6868L31.6542 39.1943C31.1188 39.7572 30.7173 40.1794 30.3157 40.6016ZM20.5446 33.4946C19.6076 32.7205 19.0722 32.0169 18.7376 31.454C18.4699 30.891 18.336 30.3281 18.336 29.7652C18.336 28.78 18.6707 27.9356 19.273 27.3023C19.9423 26.669 20.7454 26.3172 21.7492 26.3172C22.2177 26.3172 22.6862 26.3876 23.0877 26.5283C23.5562 26.6691 23.8909 26.8801 24.2924 27.1616C24.627 27.4431 24.8947 27.7949 25.0955 28.2171C25.2963 28.6393 25.4301 29.1319 25.4301 29.6948C25.4301 30.8207 25.0955 31.7354 24.4263 32.4391C23.757 33.1427 22.8201 33.776 21.5485 34.4797L20.5446 33.4946ZM22.887 30.6096C23.0878 30.3281 23.2216 29.9763 23.2216 29.5541C23.2216 28.6393 22.8201 28.2171 21.95 28.2171C21.5485 28.2171 21.2808 28.3578 21.0131 28.5689C20.7453 28.8504 20.6784 29.1319 20.6784 29.5541C20.6784 29.9059 20.7454 30.1873 20.8792 30.5392C21.0131 30.8206 21.3477 31.1725 21.7492 31.5947C22.2846 31.2428 22.6193 30.891 22.887 30.6096ZM20.21 40.0386C20.21 40.6015 20.4107 41.0238 20.8792 41.3052C21.2808 41.5867 21.8162 41.7274 22.3516 41.7274C22.6862 41.7274 23.0208 41.7274 23.4224 41.6571C23.757 41.5867 24.0916 41.5163 24.4263 41.3756L21.1469 38.4202C20.4777 38.8424 20.21 39.4053 20.21 40.0386Z" fill="#9FAAAB"/>
<path d="M23.2214 0H21.749V18.6471H23.2214V0Z" fill="#9FAAAB"/>
<path d="M23.2214 50.3124H21.749V71H23.2214V50.3124Z" fill="#9FAAAB"/>
<path d="M67.4589 32.2596C64.8441 32.2596 62.4783 31.6868 60.3615 30.5413C58.2697 29.3708 56.6261 27.777 55.4307 25.7599C54.2354 23.7178 53.6377 21.4267 53.6377 18.8866C53.6377 16.3465 54.2354 14.0679 55.4307 12.0507C56.6261 10.0087 58.2821 8.41488 60.3989 7.26934C62.5156 6.09889 64.8814 5.51367 67.4963 5.51367C69.5383 5.51367 71.406 5.86231 73.0994 6.5596C74.7928 7.23198 76.2372 8.24056 77.4326 9.58532L75.0045 11.9387C73.0372 9.87171 70.5842 8.83823 67.6457 8.83823C65.7032 8.83823 63.9476 9.27403 62.3787 10.1456C60.8098 11.0172 59.5771 12.225 58.6806 13.769C57.809 15.2881 57.3732 16.994 57.3732 18.8866C57.3732 20.7792 57.809 22.4976 58.6806 24.0416C59.5771 25.5606 60.8098 26.756 62.3787 27.6276C63.9476 28.4992 65.7032 28.935 67.6457 28.935C70.5593 28.935 73.0123 27.8891 75.0045 25.7972L77.4326 28.1506C76.2372 29.4953 74.7804 30.5163 73.0621 31.2136C71.3687 31.9109 69.5009 32.2596 67.4589 32.2596Z" fill="#9FAAAB"/>
<path d="M84.5545 15.4873C85.177 14.3418 86.0984 13.4702 87.3187 12.8725C88.5389 12.2749 90.0207 11.976 91.7639 11.976V15.45C91.5647 15.4251 91.2907 15.4126 90.9421 15.4126C88.9997 15.4126 87.4681 15.9979 86.3475 17.1683C85.2517 18.3138 84.7039 19.9574 84.7039 22.0991V31.9607H81.1178V12.1628H84.5545V15.4873Z" fill="#9FAAAB"/>
<path d="M112.774 22.1738C112.774 22.4478 112.749 22.8088 112.699 23.2571H96.6363C96.8605 25.0003 97.62 26.4073 98.915 27.4782C100.235 28.5241 101.866 29.0471 103.808 29.0471C106.174 29.0471 108.079 28.2502 109.524 26.6564L111.503 28.9724C110.607 30.0183 109.486 30.8152 108.142 31.3631C106.822 31.9109 105.34 32.1849 103.696 32.1849C101.604 32.1849 99.7492 31.7615 98.1305 30.9148C96.5118 30.0432 95.2542 28.8354 94.3577 27.2914C93.4861 25.7474 93.0503 24.0042 93.0503 22.0618C93.0503 20.1442 93.4736 18.4135 94.3204 16.8695C95.192 15.3255 96.3749 14.1301 97.869 13.2834C99.3881 12.4118 101.094 11.976 102.987 11.976C104.879 11.976 106.56 12.4118 108.029 13.2834C109.524 14.1301 110.682 15.3255 111.503 16.8695C112.35 18.4135 112.774 20.1816 112.774 22.1738ZM102.987 15.0017C101.268 15.0017 99.8239 15.5247 98.6535 16.5706C97.5079 17.6166 96.8356 18.9862 96.6363 20.6796H109.337C109.138 19.0111 108.453 17.6539 107.282 16.608C106.137 15.5372 104.705 15.0017 102.987 15.0017Z" fill="#9FAAAB"/>
<path d="M123.295 11.976C126.034 11.976 128.126 12.6484 129.57 13.9932C131.04 15.3379 131.774 17.3426 131.774 20.0073V31.9607H128.375V29.3459C127.777 30.2673 126.918 30.9771 125.797 31.4751C124.702 31.9483 123.394 32.1849 121.875 32.1849C119.659 32.1849 117.878 31.6494 116.533 30.5786C115.214 29.5078 114.554 28.1007 114.554 26.3575C114.554 24.6143 115.189 23.2197 116.459 22.1738C117.729 21.103 119.746 20.5676 122.51 20.5676H128.188V19.8578C128.188 18.3138 127.74 17.1309 126.843 16.3091C125.947 15.4873 124.627 15.0764 122.884 15.0764C121.713 15.0764 120.568 15.2757 119.447 15.6741C118.327 16.0477 117.38 16.5582 116.608 17.2057L115.114 14.5161C116.135 13.6943 117.355 13.0718 118.775 12.6484C120.194 12.2001 121.701 11.976 123.295 11.976ZM122.473 29.4206C123.843 29.4206 125.025 29.1218 126.022 28.5241C127.018 27.9015 127.74 27.0299 128.188 25.9093V23.145H122.66C119.621 23.145 118.102 24.1661 118.102 26.2081C118.102 27.2042 118.488 27.9887 119.26 28.5615C120.032 29.1342 121.103 29.4206 122.473 29.4206Z" fill="#9FAAAB"/>
<path d="M148.421 30.8027C147.899 31.251 147.251 31.5996 146.479 31.8487C145.707 32.0728 144.91 32.1849 144.088 32.1849C142.096 32.1849 140.552 31.6494 139.456 30.5786C138.361 29.5078 137.813 27.9762 137.813 25.984V15.1138H134.451V12.1628H137.813V7.82966H141.399V12.1628H147.077V15.1138H141.399V25.8346C141.399 26.9054 141.66 27.7272 142.183 28.3C142.731 28.8727 143.503 29.1591 144.499 29.1591C145.595 29.1591 146.529 28.8478 147.301 28.2253L148.421 30.8027Z" fill="#9FAAAB"/>
<path d="M168.873 22.1738C168.873 22.4478 168.848 22.8088 168.798 23.2571H152.735C152.959 25.0003 153.719 26.4073 155.014 27.4782C156.334 28.5241 157.965 29.0471 159.907 29.0471C162.273 29.0471 164.178 28.2502 165.623 26.6564L167.602 28.9724C166.706 30.0183 165.585 30.8152 164.241 31.3631C162.921 31.9109 161.439 32.1849 159.795 32.1849C157.704 32.1849 155.848 31.7615 154.23 30.9148C152.611 30.0432 151.353 28.8354 150.457 27.2914C149.585 25.7474 149.149 24.0042 149.149 22.0618C149.149 20.1442 149.573 18.4135 150.419 16.8695C151.291 15.3255 152.474 14.1301 153.968 13.2834C155.487 12.4118 157.193 11.976 159.086 11.976C160.978 11.976 162.659 12.4118 164.128 13.2834C165.623 14.1301 166.781 15.3255 167.602 16.8695C168.449 18.4135 168.873 20.1816 168.873 22.1738ZM159.086 15.0017C157.367 15.0017 155.923 15.5247 154.752 16.5706C153.607 17.6166 152.935 18.9862 152.735 20.6796H165.436C165.237 19.0111 164.552 17.6539 163.381 16.608C162.236 15.5372 160.804 15.0017 159.086 15.0017Z" fill="#9FAAAB"/>
<path d="M176.168 15.4873C176.791 14.3418 177.712 13.4702 178.932 12.8725C180.153 12.2749 181.634 11.976 183.377 11.976V15.45C183.178 15.4251 182.904 15.4126 182.556 15.4126C180.613 15.4126 179.082 15.9979 177.961 17.1683C176.865 18.3138 176.317 19.9574 176.317 22.0991V31.9607H172.731V12.1628H176.168V15.4873Z" fill="#9FAAAB"/>
<path d="M59.5024 44.2824V53.3969H72.6138V56.6094H59.5024V67.1808H55.7669V41.0326H74.2201V44.2824H59.5024Z" fill="#9FAAAB"/>
<path d="M84.3511 47.1961C87.0904 47.1961 89.1822 47.8684 90.6266 49.2132C92.0959 50.558 92.8305 52.5627 92.8305 55.2273V67.1808H89.4313V64.5659C88.8336 65.4874 87.9744 66.1971 86.8538 66.6952C85.7581 67.1683 84.4507 67.4049 82.9316 67.4049C80.7152 67.4049 78.9346 66.8695 77.5899 65.7986C76.27 64.7278 75.6101 63.3208 75.6101 61.5776C75.6101 59.8344 76.2451 58.4398 77.5152 57.3939C78.7852 56.323 80.8024 55.7876 83.5666 55.7876H89.2445V55.0779C89.2445 53.5339 88.7962 52.351 87.8997 51.5292C87.0032 50.7074 85.6834 50.2965 83.9402 50.2965C82.7697 50.2965 81.6242 50.4957 80.5035 50.8942C79.3829 51.2677 78.4366 51.7782 77.6646 52.4257L76.1704 49.7362C77.1914 48.9144 78.4117 48.2918 79.8311 47.8684C81.2506 47.4202 82.7573 47.1961 84.3511 47.1961ZM83.5293 64.6407C84.8989 64.6407 86.0818 64.3418 87.0779 63.7441C88.0741 63.1216 88.7962 62.25 89.2445 61.1293V58.3651H83.716C80.6779 58.3651 79.1588 59.3861 79.1588 61.4282C79.1588 62.4243 79.5448 63.2087 80.3168 63.7815C81.0887 64.3543 82.1596 64.6407 83.5293 64.6407Z" fill="#9FAAAB"/>
<path d="M115.501 47.3828L106.834 67.1808H103.174L94.5074 47.3828H98.2429L105.041 63.2585L111.989 47.3828H115.501Z" fill="#9FAAAB"/>
</g>
<defs>
<filter id="filter0_d_16_90" x="0.884033" y="0" width="186.493" height="79" filterUnits="userSpaceOnUse" color-interpolation-filters="sRGB">
<feFlood flood-opacity="0" result="BackgroundImageFix"/>
<feColorMatrix in="SourceAlpha" type="matrix" values="0 0 0 0 0 0 0 0 0 0 0 0 0 0 0 0 0 0 127 0" result="hardAlpha"/>
<feOffset dy="4"/>
<feGaussianBlur stdDeviation="2"/>
<feComposite in2="hardAlpha" operator="out"/>
<feColorMatrix type="matrix" values="0 0 0 0 0 0 0 0 0 0 0 0 0 0 0 0 0 0 0.25 0"/>
<feBlend mode="normal" in2="BackgroundImageFix" result="effect1_dropShadow_16_90"/>
<feBlend mode="normal" in="SourceGraphic" in2="effect1_dropShadow_16_90" result="shape"/>
</filter>
</defs>
</svg>
